HIERARCHY
ROOT Hips
{
  OFFSET 55.8376 84.0133 12.8177
  CHANNELS 6 Xposition Yposition Zposition Zrotation Xrotation Yrotation
  JOINT spine
  {
    OFFSET 0 5.95438 0.342407
    CHANNELS 3 Zrotation Xrotation Yrotation
    JOINT spine1
    {
      OFFSET 0 8.85602 0
      CHANNELS 3 Zrotation Xrotation Yrotation
      JOINT spine2
      {
        OFFSET 0 8.48567 0
        CHANNELS 3 Zrotation Xrotation Yrotation
        JOINT Neck
        {
          OFFSET 0 21.7863 1.0387
          CHANNELS 3 Zrotation Xrotation Yrotation
          JOINT Head
          {
            OFFSET 0 6.5822 0
            CHANNELS 3 Zrotation Xrotation Yrotation
            End Site
            {
              OFFSET 0 15.9326 -5.25436
            }
          }
        }
        JOINT RightShoulder
        {
          OFFSET -3.57307 9.16386 -0.497525
          CHANNELS 3 Zrotation Xrotation Yrotation
          JOINT RightArm
          {
            OFFSET 0 12.0192 0
            CHANNELS 3 Zrotation Xrotation Yrotation
            JOINT RightArmRoll
            {
              OFFSET 0 6.06755 0
              CHANNELS 3 Zrotation Xrotation Yrotation
              JOINT RightForeArm
              {
                OFFSET 0 17.6726 0
                CHANNELS 3 Zrotation Xrotation Yrotation
                JOINT RightForeArmRoll
                {
                  OFFSET 0 6.80872 0
                  CHANNELS 3 Zrotation Xrotation Yrotation
                  JOINT RightHand
                  {
                    OFFSET 0 13.6636 0
                    CHANNELS 3 Zrotation Xrotation Yrotation
                    End Site
                    {
                      OFFSET 0 0 0
                    }
                  }
                }
              }
            }
          }
        }
        JOINT LeftShoulder
        {
          OFFSET 3.57307 9.16386 -0.497525
          CHANNELS 3 Zrotation Xrotation Yrotation
          JOINT LeftArm
          {
            OFFSET 0 12.0192 0
            CHANNELS 3 Zrotation Xrotation Yrotation
            JOINT LeftArmRoll
            {
              OFFSET 0 6.06755 0
              CHANNELS 3 Zrotation Xrotation Yrotation
              JOINT LeftForeArm
              {
                OFFSET 0 17.6726 0
                CHANNELS 3 Zrotation Xrotation Yrotation
                JOINT LeftForeArmRoll
                {
                  OFFSET 0 6.80872 0
                  CHANNELS 3 Zrotation Xrotation Yrotation
                  JOINT LeftHand
                  {
                    OFFSET 0 13.6636 0
                    CHANNELS 3 Zrotation Xrotation Yrotation
                    End Site
                    {
                      OFFSET 0 0 0
                    }
                  }
                }
              }
            }
          }
        }
      }
    }
  }
  JOINT RightUpLeg
  {
    OFFSET -5.27774 -0.967797 -0.811858
    CHANNELS 3 Zrotation Xrotation Yrotation
    JOINT RightUpLegRoll
    {
      OFFSET 0 16.0214 0
      CHANNELS 3 Zrotation Xrotation Yrotation
      JOINT RightLeg
      {
        OFFSET 0 -19.8401 0
        CHANNELS 3 Zrotation Xrotation Yrotation
        JOINT RightLegRoll
        {
          OFFSET 0 19.905 0
          CHANNELS 3 Zrotation Xrotation Yrotation
          JOINT RightFoot
          {
            OFFSET 0 16.5675 0
            CHANNELS 3 Zrotation Xrotation Yrotation
            JOINT RightToeBase
            {
              OFFSET 0 13.8496 0
              CHANNELS 3 Zrotation Xrotation Yrotation
              End Site
              {
                OFFSET 0.00587034 6.70728 -0.773117
              }
            }
          }
        }
      }
    }
  }
  JOINT LeftUpLeg
  {
    OFFSET 5.27774 -0.967797 -0.811858
    CHANNELS 3 Zrotation Xrotation Yrotation
    JOINT LeftUpLegRoll
    {
      OFFSET 0 16.0215 0
      CHANNELS 3 Zrotation Xrotation Yrotation
      JOINT LeftLeg
      {
        OFFSET 0 19.84 0
        CHANNELS 3 Zrotation Xrotation Yrotation
        JOINT LeftLegRoll
        {
          OFFSET 0 20.089 0
          CHANNELS 3 Zrotation Xrotation Yrotation
          JOINT LeftFoot
          {
            OFFSET 0 16.3835 0
            CHANNELS 3 Zrotation Xrotation Yrotation
            JOINT LeftToeBase
            {
              OFFSET 0 13.8496 0
              CHANNELS 3 Zrotation Xrotation Yrotation
              End Site
              {
                OFFSET -0.0263083 6.70728 -0.773117
              }
            }
          }
        }
      }
    }
  }
}
MOTION
Frames: 8
Frame Time: 0.00208333
52.8892 77.8327 12.3192 -1.66736 5.0643 8.18478 0.571004 0.256219 0.124019 1.14339 4.51581 0.171318 1.14323 6.16066 0.152082 -25.9794 -7.11704 -10.1328 27.5057 -7.32748 -10.4332 40.5773 -6.79466 -3.31612 138.748 11.285 -37.695 2.05324e-005 4.49497e-007 3.49626e-006 -3.64665 -0.0307923 -1.99295 2.43747e-005 1.23485e-006 -3.01161 8.03009 -4.95136 0.697632 -66.718 -5.6273 3.87578 -120.26 18.0985 19.5838 8.64713e-015 6.57639e-007 4.37326e-015 3.64189 -0.027419 1.99261 -5.98048e-007 -1.85886e-006 3.0116 -8.03008 -4.9514 -0.697626 -174.859 27.5946 -3.70352 180 7.01471e-015 178.631 -176.164 47.3499 176.269 -3.09886e-007 7.60864e-007 1.63622 -37.276 79.1769 39.0824 8.73004 33.4714 -3.74246 176.284 29.8138 6.30476 4.54188e-006 -4.6773e-006 -1.44528 6.53264 -50.5142 5.10845 -6.42456e-007 1.24004e-006 -1.92085 33.1894 78.1857 -35.3761 -8.34209 33.0593 1.3642 
53.0504 77.6395 11.9663 -1.81026 5.14735 8.24031 0.621847 0.300682 0.12664 1.24533 4.6048 0.169138 1.2454 6.24965 0.148389 -26.2066 -7.50409 -10.2808 27.5141 -7.21033 -10.5692 40.1705 -6.87388 -3.34996 139.188 11.4646 -38.2226 2.05324e-005 4.49497e-007 3.49626e-006 -3.64665 -0.0307928 -1.99295 2.43747e-005 1.23485e-006 -3.01161 8.03009 -4.95136 0.697632 -66.9161 -5.63212 3.8908 -120.236 18.3004 19.642 1.42131e-014 6.57639e-007 4.37326e-015 3.6419 -0.0274152 1.99261 -5.98048e-007 -1.85886e-006 3.0116 -8.03008 -4.9514 -0.697626 -174.62 28.1014 -3.82533 180 -7.01469e-015 178.625 -176.157 47.9348 176.222 -3.09886e-007 7.60863e-007 1.65704 -37.7853 79.2871 39.5502 8.73911 33.527 -3.77261 176.279 30.4808 6.37603 4.54188e-006 -4.6773e-006 -1.45648 6.79307 -51.2788 5.33178 -6.42455e-007 1.24004e-006 -1.95434 33.2938 78.2233 -35.4902 -8.33788 33.1675 1.31797 
52.7014 77.5083 11.8362 -1.94674 5.19546 8.3037 0.665196 0.352825 0.128875 1.33227 4.70914 0.167 1.33255 6.35397 0.144929 -26.324 -7.88475 -10.4289 27.4498 -7.09906 -10.6954 39.9259 -6.92475 -3.37146 139.489 11.6845 -38.6142 2.05324e-005 4.49497e-007 3.49626e-006 -3.64665 -0.0307932 -1.99295 2.43747e-005 1.23485e-006 -3.01161 8.03009 -4.95136 0.697632 -67.0561 -5.62388 3.89525 -120.233 18.497 19.7165 1.18028e-015 6.57639e-007 3.97569e-015 3.64192 -0.0274115 1.99261 -5.98048e-007 -1.85886e-006 3.0116 -8.03008 -4.9514 -0.697626 -174.414 28.5531 -3.91085 180 -7.01467e-015 178.62 -176.18 48.474 176.195 -3.09886e-007 7.60861e-007 1.67202 -38.1152 79.3441 39.8218 8.75082 33.6291 -3.79717 176.265 31.0787 6.45421 4.54188e-006 -4.6773e-006 -1.46627 7.05326 -51.9898 5.55173 -6.42455e-007 1.24003e-006 -1.97941 33.2124 78.1977 -35.4103 -8.33609 33.3556 1.2759 
52.9732 77.3633 11.6248 -2.08143 5.20423 8.37657 0.703584 0.415846 0.130842 1.4093 4.83521 0.164723 1.40979 6.48004 0.141458 -26.3534 -8.2869 -10.5863 27.3218 -6.97706 -10.8214 39.8144 -6.95256 -3.38284 139.678 11.9478 -38.8991 2.05324e-005 4.49497e-007 3.49626e-006 -3.64665 -0.0307937 -1.99295 2.43747e-005 1.23485e-006 -3.01161 8.03009 -4.95136 0.697632 -67.1555 -5.60316 3.89051 -120.24 18.7005 19.8039 -1.12313e-014 6.57639e-007 2.78299e-015 3.64193 -0.0274078 1.99261 -5.98048e-007 -1.85886e-006 3.0116 -8.03008 -4.9514 -0.697626 -174.23 28.9609 -3.9658 180 7.01466e-015 178.615 -176.234 48.9838 176.187 -3.09887e-007 7.6086e-007 1.68196 -38.2708 79.3511 39.9013 8.76485 33.7667 -3.81865 176.245 31.6236 6.5386 4.54188e-006 -4.6773e-006 -1.47511 7.31934 -52.6654 5.77563 -6.42455e-007 1.24003e-006 -1.99756 32.9455 78.1086 -35.1378 -8.33607 33.607 1.23738 
52.6922 77.2506 11.3794 -2.2136 5.18001 8.45761 0.737274 0.487788 0.132558 1.47693 4.97912 0.162349 1.47763 6.62393 0.138015 -26.3049 -8.7055 -10.751 27.1384 -6.84561 -10.9468 39.8218 -6.96 -3.38536 139.766 12.2492 -39.089 2.05324e-005 4.49497e-007 3.49626e-006 -3.64665 -0.0307942 -1.99295 2.43747e-005 1.23485e-006 -3.01161 8.03009 -4.95136 0.697632 -67.2175 -5.57147 3.87756 -120.26 18.9081 19.9032 -4.57205e-015 6.57639e-007 3.18055e-015 3.64194 -0.0274041 1.99261 -5.98048e-007 -1.85886e-006 3.0116 -8.03008 -4.9514 -0.697626 -174.069 29.3292 -3.99254 180 7.01465e-015 178.612 -176.316 49.4638 176.196 -3.09886e-007 7.60859e-007 1.68729 -38.2698 79.3139 39.8087 8.78081 33.9343 -3.83731 176.218 32.1206 6.62842 4.54188e-006 -4.6773e-006 -1.48303 7.58926 -53.3055 6.00191 -6.42455e-007 1.24002e-006 -2.00936 32.5213 77.9624 -34.7015 -8.33749 33.9135 1.20217 
53.0636 77.064 11.143 -2.34252 5.12918 8.5455 0.766528 0.566698 0.134041 1.5357 5.13695 0.159925 1.5366 6.78174 0.134639 -26.1886 -9.13556 -10.9212 26.9078 -6.706 -11.0707 39.9338 -6.94977 -3.38031 139.764 12.5834 -39.1954 2.05324e-005 4.49497e-007 3.49626e-006 -3.64665 -0.0307946 -1.99295 2.43747e-005 1.23485e-006 -3.01161 8.03009 -4.95136 0.697632 -67.2449 -5.53034 3.85741 -120.291 19.1173 20.0136 9.67212e-015 6.57639e-007 3.18055e-015 3.64196 -0.0274004 1.99261 -5.98048e-007 -1.85886e-006 3.0116 -8.03008 -4.9514 -0.697626 -173.929 29.6625 -3.99354 180 7.01464e-015 178.608 -176.424 49.9134 176.222 -3.09886e-007 7.60859e-007 1.68848 -38.1339 79.238 39.5679 8.79834 34.1264 -3.8534 176.184 32.5745 6.7229 4.54188e-006 -4.6773e-006 -1.49001 7.86082 -53.9098 6.22887 -6.42455e-007 1.24002e-006 -2.01535 31.9708 77.7651 -34.133 -8.34008 34.267 1.17003 
52.8208 76.9778 10.8564 -2.46748 5.05809 8.63896 0.791608 0.650619 0.135308 1.58613 5.30479 0.157495 1.58723 6.94957 0.131371 -26.0145 -9.57209 -11.0952 26.6384 -6.55949 -11.1925 40.1361 -6.92454 -3.36895 139.685 12.9446 -39.2299 2.05324e-005 4.49497e-007 3.49626e-006 -3.64664 -0.030795 -1.99295 2.43747e-005 1.23485e-006 -3.01161 8.03009 -4.95136 0.697632 -67.2407 -5.4813 3.83106 -120.334 19.3254 20.1342 2.32889e-014 6.57639e-007 4.37326e-015 3.64197 -0.0273968 1.99261 -5.98048e-007 -1.85886e-006 3.0116 -8.03008 -4.9514 -0.697626 -173.811 29.9652 -3.97138 180 7.01463e-015 178.606 -176.555 50.3322 176.262 -3.09887e-007 7.60859e-007 1.68598 -37.8872 79.1286 39.2056 8.81702 34.3374 -3.86716 176.145 32.9905 6.8213 4.54188e-006 -4.6773e-006 -1.49608 8.13169 -54.4781 6.45468 -6.42455e-007 1.24002e-006 -2.01611 31.3254 77.523 -33.4644 -8.3436 34.6592 1.14076 
52.9706 76.8868 10.7606 -2.58783 4.9731 8.73668 0.81278 0.737598 0.136377 1.62874 5.47874 0.155103 1.63003 7.1235 0.128249 -25.7924 -10.0101 -11.271 26.3382 -6.40736 -11.3117 40.4146 -6.88702 -3.35256 139.539 13.3273 -39.2039 2.05324e-005 4.49497e-007 3.49626e-006 -3.64664 -0.0307955 -1.99295 2.43747e-005 1.23485e-006 -3.01161 8.03009 -4.95136 0.697632 -67.2078 -5.42587 3.79949 -120.389 19.5297 20.2643 1.14425e-014 6.57639e-007 3.97569e-015 3.64199 -0.0273931 1.99261 -5.98048e-007 -1.85886e-006 3.0116 -8.03008 -4.9514 -0.697626 -173.714 30.2417 -3.9287 180 7.01462e-015 178.603 -176.707 50.7196 176.316 -3.09887e-007 7.60859e-007 1.68024 -37.5548 78.9911 38.7489 8.83645 34.5617 -3.87881 176.101 33.3736 6.92288 4.54188e-006 -4.6773e-006 -1.50124 8.39942 -55.0102 6.67742 -6.42455e-007 1.24002e-006 -2.01218 30.6152 77.2423 -32.7266 -8.34783 35.0821 1.11415 
